<?xml version="1.0" encoding="utf-8"?>
<!-- Generator: Adobe Illustrator 26.3.1, SVG Export Plug-In . SVG Version: 6.00 Build 0)  -->
<svg version="1.1" id="Layer_1" xmlns="http://www.w3.org/2000/svg" xmlns:xlink="http://www.w3.org/1999/xlink" x="0px" y="0px"
	 viewBox="0 0 848 250.7" style="enable-background:new 0 0 848 250.7;" xml:space="preserve">
<style type="text/css">
	.st0{fill:#FFFFFF;}
	.st1{fill:#8B57C6;}
	.st2{fill:url(#SVGID_1_);}
	.st3{fill:url(#SVGID_00000029743034331973528630000017146820097049889712_);}
	.st4{fill:url(#SVGID_00000101077674253125202040000014107556701834273921_);}
	.st5{fill:url(#SVGID_00000178197469689521407380000004431046493583730100_);}
	.st6{fill:url(#SVGID_00000164486602840537000620000006200361607108666045_);}
	.st7{fill:url(#SVGID_00000055666032578202801020000012442531829383811715_);}
	.st8{fill:url(#SVGID_00000163043175391815755180000006977183690400918423_);}
</style>
<g id="OBJECTS_00000018949709276006274960000016322951833535451269_">
	<g>
		<g>
			<g>
				<g>
					<path class="st0" d="M307.2,138.3h38v14.5h-56.7V80.2h18.7V138.3z"/>
					<path class="st0" d="M384.5,138.9c3.7,0,7.8-0.7,12.5-2.1v-39h18.2v55H399l-1-5.2c-3.2,2.2-6.6,3.7-10,4.7
						c-3.5,1-6.3,1.5-8.7,1.5h-4.7c-4.7,0-8.5-1.4-11.3-4.3c-2.9-2.9-4.3-6.6-4.3-11.3V97.8h18.2v37.4c0,1,0.3,2,1,2.7s1.6,1,2.7,1
						L384.5,138.9L384.5,138.9z"/>
					<path class="st0" d="M465.6,97.8h20.3l-16.6,27.6l17.2,27.6h-20.3l-9.3-16.6l-9.3,16.6h-20.3l17.2-27.6l-16.6-27.6H448
						l8.9,16.6L465.6,97.8z"/>
					<path class="st0" d="M521.2,99.9v53H503v-39h-7.7V99.8h26V99.9z M503,79.1h18.2v14.5H503V79.1z"/>
					<path class="st1" d="M538.2,137.8c18.9,1,31.8,1.6,38.5,1.6c1.6,0,2.9-0.5,3.8-1.4s1.4-2.2,1.4-3.8v-9.3H558
						c-7.3,0-12.6-1.6-15.8-5c-3.3-3.3-5-8.5-5-15.8v-3.2c0-7.3,1.6-12.6,5-15.8c3.3-3.3,8.5-5,15.8-5h36.5v14.5h-32.3
						c-4.2,0-6.2,2.1-6.2,6.2v2.1c0,4.2,2.1,6.2,6.2,6.2h18.7c6.8,0,11.8,1.6,15,4.7c3.2,3.2,4.7,8.2,4.7,15v5.2
						c0,6.8-1.6,11.8-4.7,15c-3.2,3.2-8.2,4.7-15,4.7c-3.6,0-7.3-0.1-11.2-0.2l-9.6-0.5c-7-0.3-14.4-0.8-21.9-1.5V137.8z"/>
					<path class="st1" d="M655.2,152.8c-6.7,0.7-13.3,1-19.7,1c-4.7,0-8.5-1.4-11.3-4.3c-2.9-2.9-4.3-6.6-4.3-11.3v-26.5h-6.2V97.7
						h6.2l2.1-12.5h16.2v12.5H651v14.1h-13v23.9c0,1,0.3,2,1,2.7c0.7,0.7,1.6,1,2.7,1h13.5L655.2,152.8L655.2,152.8z"/>
					<path class="st1" d="M724.3,137.3c0,5.2-1.5,9.2-4.4,12.2c-3,3-7,4.4-12.2,4.4h-23.9c-5.2,0-9.2-1.5-12.2-4.4
						c-3-3-4.4-7-4.4-12.2v-23.9c0-5.2,1.5-9.2,4.4-12.2c3-3,7-4.4,12.2-4.4h23.9c5.2,0,9.2,1.5,12.2,4.4c3,3,4.4,7,4.4,12.2V137.3z
						 M706.2,114.9c0-2.8-1.4-4.2-4.2-4.2h-12.5c-2.8,0-4.2,1.4-4.2,4.2v20.8c0,2.8,1.4,4.2,4.2,4.2H702c2.8,0,4.2-1.4,4.2-4.2
						V114.9z"/>
					<path class="st1" d="M773.2,112.8c-4.4,0-8.9,1-13.5,3.1v36.9h-18.2v-55h16.2l1,6.8c6-5.2,12.2-7.8,18.7-7.8h4.7v16.2h-8.9
						V112.8z"/>
					<path class="st1" d="M845.9,151.8c-13.4,1.4-25.5,2.1-36.3,2.1c-4.7,0-8.5-1.4-11.3-4.3c-2.9-2.9-4.3-6.6-4.3-11.3v-24.9
						c0-5.2,1.5-9.2,4.4-12.2c3-3,7-4.4,12.2-4.4h20.8c5.2,0,9.2,1.5,12.2,4.4c3,3,4.4,7,4.4,12.2v19.3h-35.9v4.2c0,1,0.3,2,1,2.7
						c0.7,0.7,1.6,1,2.7,1c6.8,0,16.8-0.6,30.1-1.6L845.9,151.8L845.9,151.8z M816.3,109.7c-2.8,0-4.2,1.4-4.2,4.2v5.8h17.7v-5.8
						c0-2.8-1.4-4.2-4.2-4.2H816.3z"/>
				</g>
			</g>
			<g>
				<g>
					<path class="st0" d="M342.6,193c0-5.1,1.5-9.4,4.5-12.6s6.9-4.9,12-4.9c4.6,0,8.5,1.5,11.3,4.6c2.8,3.1,4.2,7.2,4.2,12.1
						c0,5.1-1.5,9.3-4.5,12.5c-0.1,0.3-0.4,0.4-0.5,0.5l8.4,8.1h-10.4l-4.4-4.5c-1.4,0.4-3.1,0.6-4.8,0.6c-4.8,0-8.5-1.5-11.4-4.6
						C344,201.8,342.6,197.9,342.6,193z M350,192.6c0,3.2,0.8,5.8,2.3,7.8c1.5,2.1,3.6,3.1,6.3,3.1c2.7,0,4.9-1,6.4-3
						c1.5-1.9,2.3-4.5,2.3-7.8c0-3.5-0.8-6.2-2.2-8.1c-1.4-1.9-3.6-3-6.3-3c-2.7,0-4.9,1-6.4,3.1C350.7,186.8,350,189.4,350,192.6z"
						/>
					<path class="st0" d="M410.1,209h-6.8v-3.6h-0.1c-1.8,2.8-4.1,4.1-7.2,4.1c-5.4,0-8.2-3.3-8.2-9.9v-14.1h6.8V199
						c0,3.5,1.4,5.3,4.1,5.3c1.4,0,2.4-0.5,3.3-1.4c0.8-0.9,1.3-2.3,1.3-3.9v-13.4h6.8V209z"/>
					<path class="st0" d="M425.5,186.9c1-0.6,2.4-1,4.2-1.4s3.3-0.5,4.5-0.5c6.6,0,9.9,3.3,9.9,9.9V209h-6.6v-3.5h-0.1
						c-1.5,2.7-4,4-7.1,4c-2.2,0-4-0.6-5.3-1.9c-1.3-1.3-2.1-3-2.1-5.1c0-4.5,2.7-7.1,8-7.8l6.4-0.9c0-2.7-1.4-4.1-4.2-4.1
						c-2.8,0-5.4,0.9-8,2.6v-5.3H425.5z M433.3,198.4c-2.4,0.4-3.7,1.4-3.7,3.3c0,0.9,0.3,1.5,0.9,2.1c0.6,0.5,1.4,0.8,2.4,0.8
						c1.4,0,2.6-0.5,3.5-1.5s1.4-2.2,1.4-3.7v-1.7L433.3,198.4z"/>
					<path class="st0" d="M458.7,209v-34.7h6.8V209H458.7z"/>
					<path class="st0" d="M479.7,177.9c0-1,0.4-1.9,1.2-2.6c0.8-0.6,1.7-1,2.8-1s2.2,0.4,2.8,1c0.8,0.6,1.2,1.5,1.2,2.6
						s-0.4,1.9-1.2,2.6c-0.8,0.6-1.7,1-2.8,1c-1.2,0-2.1-0.4-2.8-1C480.1,179.9,479.7,179,479.7,177.9z M480.2,209v-23.4h6.8V209
						H480.2z"/>
					<path class="st0" d="M515.7,208.7c-1,0.5-2.6,0.9-4.6,0.9c-5,0-7.5-2.6-7.5-7.8v-11.1h-3.9v-5.1h3.9v-5.1l6.8-1.9v7.1h5.4v5.1
						h-5.5v9.9c0,2.4,1,3.7,3,3.7c0.8,0,1.5-0.3,2.3-0.6v5H515.7z"/>
					<path class="st0" d="M550.4,185.5l-9.6,25.6c-2.2,5.9-5.7,8.9-10,8.9c-1.8,0-3.1-0.1-4.1-0.5v-5.5c0.9,0.5,1.9,0.8,3.1,0.8
						c1.9,0,3.2-0.9,4-2.7l1.3-3.1l-9.5-23.4h7.6l4.6,14.7c0.3,0.9,0.5,1.9,0.6,3h0.1c0.1-0.8,0.4-1.7,0.6-3l4.6-14.8h6.7V185.5z"/>
					<path class="st0" d="M606.6,205.3c-3.5,2.8-7.3,4.1-12,4.1c-3.7,0-6.7-0.9-9-2.7s-3.3-4.2-3.3-7.3c0-4.2,2.7-7.5,8-9.5
						c-2.7-2.1-4-4.4-4-6.8c0-2.3,0.9-4.1,2.7-5.5c1.8-1.4,4.1-2.1,7.2-2.1c2.7,0,5,0.6,6.7,1.9c1.7,1.3,2.6,3.1,2.6,5.1
						c0,3.3-1.9,5.8-5.9,7.5c3.1,1.4,5.7,3.7,8,7.1c2.3-3,3.5-6.6,3.5-10.8c0-1.2-0.1-2.2-0.4-3.2h5.9c0.3,0.8,0.4,1.8,0.4,3.1
						c0,5.7-2.1,10.7-6.3,15.2c1.7,1.8,3.2,2.7,4.8,2.7c1.5,0,2.8-0.3,4.1-0.9v5.3c-1.5,0.6-3.2,0.9-5,0.9
						C611.6,209.6,609,208.1,606.6,205.3z M603.6,200.9c-2.4-3.9-5.5-6.6-9.3-8.1c-3.3,1.5-5,3.7-5,6.4c0,1.5,0.5,2.7,1.5,3.6
						s2.4,1.4,4.1,1.4C598.2,204.3,601,203.3,603.6,200.9z M595.4,187.6c2.7-1,4-2.4,4-4.4c0-0.9-0.3-1.7-1-2.2
						c-0.8-0.5-1.4-0.8-2.3-0.8c-1,0-1.9,0.3-2.6,0.9c-0.6,0.6-1,1.3-1,2.2C592.5,185,593.4,186.4,595.4,187.6z"/>
					<path class="st0" d="M676.9,181.9h-9.4V209h-7.1v-27.1H651v-5.8h25.7v5.8H676.9z"/>
					<path class="st0" d="M700.8,191.8c-0.8-0.5-1.8-0.8-3.1-0.8c-1.5,0-2.8,0.6-3.7,1.8c-0.9,1.2-1.4,2.8-1.4,4.9V209h-6.8v-23.4
						h6.8v4.4h0.1c1.2-3.2,3.2-4.8,6.2-4.8c0.8,0,1.4,0.1,1.8,0.3v6.3H700.8z"/>
					<path class="st0" d="M735,209h-6.8v-3.6h-0.1c-1.8,2.8-4.1,4.1-7.2,4.1c-5.4,0-8.2-3.3-8.2-9.9v-14.1h6.8V199
						c0,3.5,1.4,5.3,4.1,5.3c1.4,0,2.4-0.5,3.3-1.4c0.8-0.9,1.3-2.3,1.3-3.9v-13.4h6.8V209z"/>
					<path class="st0" d="M749.3,202.7c2.3,1.4,4.6,2.2,6.9,2.2c2.8,0,4.2-0.8,4.2-2.3c0-1-1.2-1.9-3.5-2.7c-3-0.9-4.9-1.9-6-3
						c-1-1.2-1.7-2.6-1.7-4.5c0-2.3,0.9-4.1,2.8-5.4c1.9-1.3,4.4-1.9,7.3-1.9c2.2,0,4.2,0.3,6.2,0.9v5.4c-1.8-1-3.9-1.7-6-1.7
						c-1,0-1.9,0.3-2.6,0.6c-0.6,0.4-1,0.9-1,1.5c0,1,1,1.9,3,2.6c2.1,0.6,3.7,1.3,4.8,1.9c1,0.6,1.9,1.3,2.4,2.3
						c0.5,0.9,0.9,2.1,0.9,3.3c0,2.4-1,4.2-3,5.7c-1.9,1.3-4.5,2.1-7.7,2.1c-2.6,0-4.9-0.4-7.1-1.2L749.3,202.7L749.3,202.7z"/>
					<path class="st0" d="M793.7,208.7c-1,0.5-2.6,0.9-4.6,0.9c-5,0-7.5-2.6-7.5-7.8v-11.1h-3.9v-5.1h3.9v-5.1l6.8-1.9v7.1h5.4v5.1
						h-5.4v9.9c0,2.4,1,3.7,3,3.7c0.8,0,1.5-0.3,2.3-0.6V208.7z"/>
				</g>
			</g>
		</g>
		<g>
			<g>
				
					<linearGradient id="SVGID_1_" gradientUnits="userSpaceOnUse" x1="46.5045" y1="462.8306" x2="340.2194" y2="161.5459" gradientTransform="matrix(1 0 0 -1 0 404.0329)">
					<stop  offset="0" style="stop-color:#8B57C6"/>
					<stop  offset="0.114" style="stop-color:#8B57C6"/>
					<stop  offset="0.3048" style="stop-color:#8B57C6"/>
					<stop  offset="0.4005" style="stop-color:#8B57C6"/>
					<stop  offset="0.5268" style="stop-color:#8B57C6"/>
					<stop  offset="0.695" style="stop-color:#8B57C6"/>
					<stop  offset="0.8559" style="stop-color:#8B57C6"/>
					<stop  offset="1" style="stop-color:#8B57C6"/>
				</linearGradient>
				<path class="st2" d="M199,68.3c-5.5,0-10-4.5-10-10V58c0-20.9-17-38-38-38s-38,17-38,38v0.3c0,5.5-4.5,10-10,10s-10-4.5-10-10
					V58c0-32,26-58,58-58s58,26,58,58v0.3C208.9,63.8,204.5,68.3,199,68.3z"/>
			</g>
			<g>
				<g>
					
						<linearGradient id="SVGID_00000169521333936265744180000018316374291346858136_" gradientUnits="userSpaceOnUse" x1="-26.8527" y1="391.3177" x2="266.8631" y2="90.0321" gradientTransform="matrix(1 0 0 -1 0 404.0329)">
						<stop  offset="0" style="stop-color:#8B57C6"/>
						<stop  offset="0.114" style="stop-color:#8B57C6"/>
						<stop  offset="0.3048" style="stop-color:#8B57C6"/>
						<stop  offset="0.4005" style="stop-color:#8B57C6"/>
						<stop  offset="0.5268" style="stop-color:#8B57C6"/>
						<stop  offset="0.695" style="stop-color:#8B57C6"/>
						<stop  offset="0.8559" style="stop-color:#8B57C6"/>
						<stop  offset="1" style="stop-color:#8B57C6"/>
					</linearGradient>
					<circle style="fill:url(#SVGID_00000169521333936265744180000018316374291346858136_);" cx="187.8" cy="232.9" r="17.8"/>
				</g>
				<g>
					
						<linearGradient id="SVGID_00000131335630079652725740000011313070704495082142_" gradientUnits="userSpaceOnUse" x1="-64.5889" y1="354.5297" x2="229.1269" y2="53.244" gradientTransform="matrix(1 0 0 -1 0 404.0329)">
						<stop  offset="0" style="stop-color:#8B57C6"/>
						<stop  offset="0.114" style="stop-color:#8B57C6"/>
						<stop  offset="0.3048" style="stop-color:#8B57C6"/>
						<stop  offset="0.4005" style="stop-color:#8B57C6"/>
						<stop  offset="0.5268" style="stop-color:#8B57C6"/>
						<stop  offset="0.695" style="stop-color:#8B57C6"/>
						<stop  offset="0.8559" style="stop-color:#8B57C6"/>
						<stop  offset="1" style="stop-color:#8B57C6"/>
					</linearGradient>
					<circle style="fill:url(#SVGID_00000131335630079652725740000011313070704495082142_);" cx="114.2" cy="232.9" r="17.8"/>
				</g>
			</g>
			<g>
				
					<linearGradient id="SVGID_00000137835460407220839260000002768525881976871083_" gradientUnits="userSpaceOnUse" x1="-51.5916" y1="367.1996" x2="242.1232" y2="65.9149" gradientTransform="matrix(1 0 0 -1 0 404.0329)">
					<stop  offset="0" style="stop-color:#8B57C6"/>
					<stop  offset="0.114" style="stop-color:#8B57C6"/>
					<stop  offset="0.3048" style="stop-color:#8B57C6"/>
					<stop  offset="0.4005" style="stop-color:#8B57C6"/>
					<stop  offset="0.5268" style="stop-color:#8B57C6"/>
					<stop  offset="0.695" style="stop-color:#8B57C6"/>
					<stop  offset="0.8559" style="stop-color:#8B57C6"/>
					<stop  offset="1" style="stop-color:#8B57C6"/>
				</linearGradient>
				<path style="fill:url(#SVGID_00000137835460407220839260000002768525881976871083_);" d="M52.5,116.7c0,3.5-1.4,6.7-3.7,9
					s-5.5,3.7-9,3.7H12.7c-7,0-12.7-5.7-12.7-12.7c0-3.5,1.4-6.7,3.7-9s5.5-3.7,8.9-3.7h27.2C46.9,104,52.5,109.7,52.5,116.7z"/>
			</g>
			<g>
				
					<linearGradient id="SVGID_00000089559678120312567590000015643038368329167279_" gradientUnits="userSpaceOnUse" x1="-51.5916" y1="367.1996" x2="242.1232" y2="65.9149" gradientTransform="matrix(1 0 0 -1 0 404.0329)">
					<stop  offset="0" style="stop-color:#8B57C6"/>
					<stop  offset="0.114" style="stop-color:#8B57C6"/>
					<stop  offset="0.3048" style="stop-color:#8B57C6"/>
					<stop  offset="0.4005" style="stop-color:#8B57C6"/>
					<stop  offset="0.5268" style="stop-color:#8B57C6"/>
					<stop  offset="0.695" style="stop-color:#8B57C6"/>
					<stop  offset="0.8559" style="stop-color:#8B57C6"/>
					<stop  offset="1" style="stop-color:#8B57C6"/>
				</linearGradient>
				<path style="fill:url(#SVGID_00000089559678120312567590000015643038368329167279_);" d="M52.5,116.7c0,3.5-1.4,6.7-3.7,9
					s-5.5,3.7-9,3.7H12.7c-7,0-12.7-5.7-12.7-12.7c0-3.5,1.4-6.7,3.7-9s5.5-3.7,8.9-3.7h27.2C46.9,104,52.5,109.7,52.5,116.7z"/>
			</g>
			<g>
				
					<linearGradient id="SVGID_00000024724635150891460040000014643429264431449987_" gradientUnits="userSpaceOnUse" x1="-0.3183" y1="417.1841" x2="293.3968" y2="115.8991" gradientTransform="matrix(1 0 0 -1 0 404.0329)">
					<stop  offset="0" style="stop-color:#8B57C6"/>
					<stop  offset="0.114" style="stop-color:#8B57C6"/>
					<stop  offset="0.3048" style="stop-color:#8B57C6"/>
					<stop  offset="0.4005" style="stop-color:#8B57C6"/>
					<stop  offset="0.5268" style="stop-color:#8B57C6"/>
					<stop  offset="0.695" style="stop-color:#8B57C6"/>
					<stop  offset="0.8559" style="stop-color:#8B57C6"/>
					<stop  offset="1" style="stop-color:#8B57C6"/>
				</linearGradient>
				<path style="fill:url(#SVGID_00000024724635150891460040000014643429264431449987_);" d="M229.4,78.6H73.3c-3.5,0-6.7,1.4-9,3.7
					c-2.3,2.3-3.7,5.5-3.7,9c0,6.9,5.6,12.6,12.5,12.7h41.7c7,0,12.7,5.7,12.7,12.7c0,3.5-1.4,6.7-3.7,9c-2.3,2.3-5.5,3.7-9,3.7
					H62.1c-3.5,0-6.7,1.4-9,3.7s-3.7,5.5-3.7,9c0,7,5.7,12.7,12.7,12.7h80.4c6.8,0,12.3,5.5,12.3,12.3v0.8c0,6.8-5.5,12.3-12.3,12.3
					H62.1c-3.5,0-6.7,1.4-9,3.7s-3.7,5.5-3.7,8.9c0,7,5.7,12.7,12.7,12.7h27.2c0.6,0,1.2,0,1.7-0.1l0,0c1,0.1,2.1,0.1,3.1,0.1h124.3
					c16.2,0,29.8-9.4,31.6-21.9l11-77.5C263.1,91.4,248.4,78.6,229.4,78.6z M242.6,109.4l-48.5,48.5c-1.5,1.5-3.5,2.3-5.6,2.3
					s-4.1-0.8-5.6-2.3L160.1,135c-1.5-1.5-2.2-3.4-2.3-5.3c-0.1-2.1,0.7-4.3,2.3-5.9c3.1-3.1,8.1-3.1,11.2,0l17.2,17.2l42.9-42.9
					c3.1-3.1,8.1-3.1,11.2,0C245.7,101.3,245.7,106.3,242.6,109.4z"/>
			</g>
			<g>
				
					<linearGradient id="SVGID_00000137091289293642135520000012072218402341605278_" gradientUnits="userSpaceOnUse" x1="-74.4469" y1="344.9172" x2="219.267" y2="43.6336" gradientTransform="matrix(1 0 0 -1 0 404.0329)">
					<stop  offset="0" style="stop-color:#8B57C6"/>
					<stop  offset="0.114" style="stop-color:#8B57C6"/>
					<stop  offset="0.3048" style="stop-color:#8B57C6"/>
					<stop  offset="0.4005" style="stop-color:#8B57C6"/>
					<stop  offset="0.5268" style="stop-color:#8B57C6"/>
					<stop  offset="0.695" style="stop-color:#8B57C6"/>
					<stop  offset="0.8559" style="stop-color:#8B57C6"/>
					<stop  offset="1" style="stop-color:#8B57C6"/>
				</linearGradient>
				<path style="fill:url(#SVGID_00000137091289293642135520000012072218402341605278_);" d="M43.8,167.4c0,3.9-1.7,7.4-4.5,9.7
					c-2.2,1.9-5.1,3-8.2,3c-7,0-12.7-5.7-12.7-12.7s5.7-12.7,12.7-12.7c3.1,0,6,1.1,8.2,3C42.1,160,43.8,163.5,43.8,167.4z"/>
			</g>
		</g>
	</g>
</g>
</svg>
