<?xml version="1.0" encoding="utf-8"?>
<!-- Generator: Adobe Illustrator 26.3.1, SVG Export Plug-In . SVG Version: 6.00 Build 0)  -->
<svg version="1.1" id="Layer_1" xmlns="http://www.w3.org/2000/svg" xmlns:xlink="http://www.w3.org/1999/xlink" x="0px" y="0px"
	 viewBox="0 0 949.7 250.7" style="enable-background:new 0 0 949.7 250.7;" xml:space="preserve">
<style type="text/css">
	.st0{fill:#FFFFFF;}
	.st1{fill:#8B57C6;}
	.st2{fill:url(#SVGID_1_);}
	.st3{fill:url(#SVGID_00000105384946431261289330000006447543429278486444_);}
	.st4{fill:url(#SVGID_00000164490260007448571340000011352244025837569696_);}
	.st5{fill:url(#SVGID_00000154408061393024359020000012146495921556380829_);}
	.st6{fill:url(#SVGID_00000155869107225347340400000006894795733690923406_);}
	.st7{fill:url(#SVGID_00000005255784851886983470000014765155433189194415_);}
	.st8{fill:url(#SVGID_00000014634407317218860980000007296142746101538469_);}
</style>
<g id="OBJECTS_00000018949709276006274960000016322951833535451269_">
	<g>
		<g>
			<g>
				<g>
					<path class="st0" d="M320.6,170.9h44.2v16.9h-66v-84.5h21.8V170.9z"/>
					<path class="st0" d="M410.5,171.6c4.3,0,9.1-0.8,14.5-2.4v-45.4h21.2v64h-18.8l-1.2-6c-3.7,2.6-7.7,4.3-11.6,5.5
						c-4.1,1.2-7.3,1.7-10.1,1.7H399c-5.5,0-9.9-1.6-13.1-5c-3.4-3.4-5-7.7-5-13.1v-47H402v43.5c0,1.2,0.3,2.3,1.2,3.1
						c0.8,0.8,1.9,1.2,3.1,1.2L410.5,171.6L410.5,171.6z"/>
					<path class="st0" d="M504.8,123.7h23.6l-19.3,32.1l20,32.1h-23.6l-10.8-19.3L483.9,188h-23.6l20-32.1L461,123.7h23.4l10.4,19.3
						L504.8,123.7z"/>
					<path class="st0" d="M569.5,126.2v61.7h-21.2v-45.4h-9v-16.4h30.2v0.1H569.5z M548.3,102h21.2v16.9h-21.2V102z"/>
					<path class="st1" d="M589.3,170.3c22,1.2,37,1.9,44.8,1.9c1.9,0,3.4-0.6,4.4-1.6s1.6-2.6,1.6-4.4v-10.8h-27.8
						c-8.5,0-14.7-1.9-18.4-5.8c-3.8-3.8-5.8-9.9-5.8-18.4v-3.7c0-8.5,1.9-14.7,5.8-18.4c3.8-3.8,9.9-5.8,18.4-5.8h42.5V120h-37.6
						c-4.9,0-7.2,2.4-7.2,7.2v2.4c0,4.9,2.4,7.2,7.2,7.2H639c7.9,0,13.7,1.9,17.5,5.5c3.7,3.7,5.5,9.5,5.5,17.5v6
						c0,7.9-1.9,13.7-5.5,17.5c-3.7,3.7-9.5,5.5-17.5,5.5c-4.2,0-8.5-0.1-13-0.2l-11.2-0.6c-8.1-0.3-16.8-0.9-25.5-1.7V170.3z"/>
					<path class="st1" d="M725.4,187.7c-7.8,0.8-15.5,1.2-22.9,1.2c-5.5,0-9.9-1.6-13.1-5c-3.4-3.4-5-7.7-5-13.1v-30.8h-7.2v-16.3
						h7.2l2.4-14.5h18.8v14.5h14.9V140h-15.1v27.8c0,1.2,0.3,2.3,1.2,3.1c0.8,0.8,1.9,1.2,3.1,1.2h15.7V187.7L725.4,187.7z"/>
					<path class="st1" d="M805.8,169.7c0,6-1.7,10.7-5.1,14.2c-3.5,3.5-8.1,5.1-14.2,5.1h-27.8c-6,0-10.7-1.7-14.2-5.1
						c-3.5-3.5-5.1-8.1-5.1-14.2v-27.8c0-6,1.7-10.7,5.1-14.2c3.5-3.5,8.1-5.1,14.2-5.1h27.8c6,0,10.7,1.7,14.2,5.1
						c3.5,3.5,5.1,8.1,5.1,14.2V169.7z M784.7,143.6c0-3.3-1.6-4.9-4.9-4.9h-14.5c-3.3,0-4.9,1.6-4.9,4.9v24.2
						c0,3.3,1.6,4.9,4.9,4.9h14.5c3.3,0,4.9-1.6,4.9-4.9V143.6z"/>
					<path class="st1" d="M862.7,141.2c-5.1,0-10.4,1.2-15.7,3.6v42.9h-21.2v-64h18.8l1.2,7.9c7-6,14.2-9.1,21.8-9.1h5.5v18.8h-10.4
						V141.2z"/>
					<path class="st1" d="M947.3,186.6c-15.6,1.6-29.7,2.4-42.2,2.4c-5.5,0-9.9-1.6-13.1-5c-3.4-3.4-5-7.7-5-13.1v-29
						c0-6,1.7-10.7,5.1-14.2c3.5-3.5,8.1-5.1,14.2-5.1h24.2c6,0,10.7,1.7,14.2,5.1c3.5,3.5,5.1,8.1,5.1,14.2v22.5h-41.8v4.9
						c0,1.2,0.3,2.3,1.2,3.1c0.8,0.8,1.9,1.2,3.1,1.2c7.9,0,19.5-0.7,35-1.9L947.3,186.6L947.3,186.6z M912.8,137.6
						c-3.3,0-4.9,1.6-4.9,4.9v6.7h20.6v-6.7c0-3.3-1.6-4.9-4.9-4.9H912.8z"/>
				</g>
			</g>
		</g>
		<g>
			<g>
				
					<linearGradient id="SVGID_1_" gradientUnits="userSpaceOnUse" x1="46.5045" y1="1537.1694" x2="340.2194" y2="1838.4541" gradientTransform="matrix(1 0 0 1 0 -1595.967)">
					<stop  offset="0" style="stop-color:#8B57C6"/>
					<stop  offset="0.114" style="stop-color:#8B57C6"/>
					<stop  offset="0.3048" style="stop-color:#8B57C6"/>
					<stop  offset="0.4005" style="stop-color:#8B57C6"/>
					<stop  offset="0.5268" style="stop-color:#8B57C6"/>
					<stop  offset="0.695" style="stop-color:#8B57C6"/>
					<stop  offset="0.8559" style="stop-color:#8B57C6"/>
					<stop  offset="1" style="stop-color:#8B57C6"/>
				</linearGradient>
				<path class="st2" d="M199,68.3c-5.5,0-10-4.5-10-10V58c0-20.9-17-38-38-38s-38,17-38,38v0.3c0,5.5-4.5,10-10,10s-10-4.5-10-10
					V58c0-32,26-58,58-58s58,26,58,58v0.3C208.9,63.8,204.5,68.3,199,68.3z"/>
			</g>
			<g>
				<g>
					
						<linearGradient id="SVGID_00000010998006594329829310000005277856504177264788_" gradientUnits="userSpaceOnUse" x1="-26.8527" y1="1608.6823" x2="266.8631" y2="1909.9679" gradientTransform="matrix(1 0 0 1 0 -1595.967)">
						<stop  offset="0" style="stop-color:#8B57C6"/>
						<stop  offset="0.114" style="stop-color:#8B57C6"/>
						<stop  offset="0.3048" style="stop-color:#8B57C6"/>
						<stop  offset="0.4005" style="stop-color:#8B57C6"/>
						<stop  offset="0.5268" style="stop-color:#8B57C6"/>
						<stop  offset="0.695" style="stop-color:#8B57C6"/>
						<stop  offset="0.8559" style="stop-color:#8B57C6"/>
						<stop  offset="1" style="stop-color:#8B57C6"/>
					</linearGradient>
					<circle style="fill:url(#SVGID_00000010998006594329829310000005277856504177264788_);" cx="187.8" cy="232.9" r="17.8"/>
				</g>
				<g>
					
						<linearGradient id="SVGID_00000037664667139481191410000004541901296495510676_" gradientUnits="userSpaceOnUse" x1="-64.5889" y1="1645.4703" x2="229.1269" y2="1946.756" gradientTransform="matrix(1 0 0 1 0 -1595.967)">
						<stop  offset="0" style="stop-color:#8B57C6"/>
						<stop  offset="0.114" style="stop-color:#8B57C6"/>
						<stop  offset="0.3048" style="stop-color:#8B57C6"/>
						<stop  offset="0.4005" style="stop-color:#8B57C6"/>
						<stop  offset="0.5268" style="stop-color:#8B57C6"/>
						<stop  offset="0.695" style="stop-color:#8B57C6"/>
						<stop  offset="0.8559" style="stop-color:#8B57C6"/>
						<stop  offset="1" style="stop-color:#8B57C6"/>
					</linearGradient>
					<circle style="fill:url(#SVGID_00000037664667139481191410000004541901296495510676_);" cx="114.2" cy="232.9" r="17.8"/>
				</g>
			</g>
			<g>
				
					<linearGradient id="SVGID_00000040560912043069882350000003056728275014816176_" gradientUnits="userSpaceOnUse" x1="-51.5916" y1="1632.8004" x2="242.1232" y2="1934.0851" gradientTransform="matrix(1 0 0 1 0 -1595.967)">
					<stop  offset="0" style="stop-color:#8B57C6"/>
					<stop  offset="0.114" style="stop-color:#8B57C6"/>
					<stop  offset="0.3048" style="stop-color:#8B57C6"/>
					<stop  offset="0.4005" style="stop-color:#8B57C6"/>
					<stop  offset="0.5268" style="stop-color:#8B57C6"/>
					<stop  offset="0.695" style="stop-color:#8B57C6"/>
					<stop  offset="0.8559" style="stop-color:#8B57C6"/>
					<stop  offset="1" style="stop-color:#8B57C6"/>
				</linearGradient>
				<path style="fill:url(#SVGID_00000040560912043069882350000003056728275014816176_);" d="M52.5,116.7c0,3.5-1.4,6.7-3.7,9
					s-5.5,3.7-9,3.7H12.7c-7,0-12.7-5.7-12.7-12.7c0-3.5,1.4-6.7,3.7-9s5.5-3.7,8.9-3.7h27.2C46.9,104,52.5,109.7,52.5,116.7z"/>
			</g>
			<g>
				
					<linearGradient id="SVGID_00000166635459227409035910000008774044080933967012_" gradientUnits="userSpaceOnUse" x1="-51.5916" y1="1632.8004" x2="242.1232" y2="1934.0851" gradientTransform="matrix(1 0 0 1 0 -1595.967)">
					<stop  offset="0" style="stop-color:#8B57C6"/>
					<stop  offset="0.114" style="stop-color:#8B57C6"/>
					<stop  offset="0.3048" style="stop-color:#8B57C6"/>
					<stop  offset="0.4005" style="stop-color:#8B57C6"/>
					<stop  offset="0.5268" style="stop-color:#8B57C6"/>
					<stop  offset="0.695" style="stop-color:#8B57C6"/>
					<stop  offset="0.8559" style="stop-color:#8B57C6"/>
					<stop  offset="1" style="stop-color:#8B57C6"/>
				</linearGradient>
				<path style="fill:url(#SVGID_00000166635459227409035910000008774044080933967012_);" d="M52.5,116.7c0,3.5-1.4,6.7-3.7,9
					s-5.5,3.7-9,3.7H12.7c-7,0-12.7-5.7-12.7-12.7c0-3.5,1.4-6.7,3.7-9s5.5-3.7,8.9-3.7h27.2C46.9,104,52.5,109.7,52.5,116.7z"/>
			</g>
			<g>
				
					<linearGradient id="SVGID_00000006689991546717075380000012210791542863481488_" gradientUnits="userSpaceOnUse" x1="-0.3183" y1="1582.8159" x2="293.3968" y2="1884.101" gradientTransform="matrix(1 0 0 1 0 -1595.967)">
					<stop  offset="0" style="stop-color:#8B57C6"/>
					<stop  offset="0.114" style="stop-color:#8B57C6"/>
					<stop  offset="0.3048" style="stop-color:#8B57C6"/>
					<stop  offset="0.4005" style="stop-color:#8B57C6"/>
					<stop  offset="0.5268" style="stop-color:#8B57C6"/>
					<stop  offset="0.695" style="stop-color:#8B57C6"/>
					<stop  offset="0.8559" style="stop-color:#8B57C6"/>
					<stop  offset="1" style="stop-color:#8B57C6"/>
				</linearGradient>
				<path style="fill:url(#SVGID_00000006689991546717075380000012210791542863481488_);" d="M229.4,78.6H73.3c-3.5,0-6.7,1.4-9,3.7
					c-2.3,2.3-3.7,5.5-3.7,9c0,6.9,5.6,12.6,12.5,12.7h41.7c7,0,12.7,5.7,12.7,12.7c0,3.5-1.4,6.7-3.7,9c-2.3,2.3-5.5,3.7-9,3.7
					H62.1c-3.5,0-6.7,1.4-9,3.7s-3.7,5.5-3.7,9c0,7,5.7,12.7,12.7,12.7h80.4c6.8,0,12.3,5.5,12.3,12.3v0.8c0,6.8-5.5,12.3-12.3,12.3
					H62.1c-3.5,0-6.7,1.4-9,3.7s-3.7,5.5-3.7,8.9c0,7,5.7,12.7,12.7,12.7h27.2c0.6,0,1.2,0,1.7-0.1l0,0c1,0.1,2.1,0.1,3.1,0.1h124.3
					c16.2,0,29.8-9.4,31.6-21.9l11-77.5C263.1,91.4,248.4,78.6,229.4,78.6z M242.6,109.4l-48.5,48.5c-1.5,1.5-3.5,2.3-5.6,2.3
					s-4.1-0.8-5.6-2.3L160.1,135c-1.5-1.5-2.2-3.4-2.3-5.3c-0.1-2.1,0.7-4.3,2.3-5.9c3.1-3.1,8.1-3.1,11.2,0l17.2,17.2l42.9-42.9
					c3.1-3.1,8.1-3.1,11.2,0C245.7,101.3,245.7,106.3,242.6,109.4z"/>
			</g>
			<g>
				
					<linearGradient id="SVGID_00000119092239451228144950000004688616353880988804_" gradientUnits="userSpaceOnUse" x1="-74.4469" y1="1655.0828" x2="219.267" y2="1956.3665" gradientTransform="matrix(1 0 0 1 0 -1595.967)">
					<stop  offset="0" style="stop-color:#8B57C6"/>
					<stop  offset="0.114" style="stop-color:#8B57C6"/>
					<stop  offset="0.3048" style="stop-color:#8B57C6"/>
					<stop  offset="0.4005" style="stop-color:#8B57C6"/>
					<stop  offset="0.5268" style="stop-color:#8B57C6"/>
					<stop  offset="0.695" style="stop-color:#8B57C6"/>
					<stop  offset="0.8559" style="stop-color:#8B57C6"/>
					<stop  offset="1" style="stop-color:#8B57C6"/>
				</linearGradient>
				<path style="fill:url(#SVGID_00000119092239451228144950000004688616353880988804_);" d="M43.8,167.4c0,3.9-1.7,7.4-4.5,9.7
					c-2.2,1.9-5.1,3-8.2,3c-7,0-12.7-5.7-12.7-12.7s5.7-12.7,12.7-12.7c3.1,0,6,1.1,8.2,3C42.1,160,43.8,163.5,43.8,167.4z"/>
			</g>
		</g>
	</g>
</g>
</svg>
