<?xml version="1.0" encoding="utf-8"?>
<!-- Generator: Adobe Illustrator 26.3.1, SVG Export Plug-In . SVG Version: 6.00 Build 0)  -->
<svg version="1.1" xmlns="http://www.w3.org/2000/svg" xmlns:xlink="http://www.w3.org/1999/xlink" x="0px" y="0px"
	 viewBox="0 0 789 250.7" style="enable-background:new 0 0 789 250.7;" xml:space="preserve">
<style type="text/css">
	.st0{fill:#FFFFFF;}
	.st1{fill:#6C2CFF;}
	.st2{fill:url(#SVGID_1_);}
	.st3{fill:url(#SVGID_00000022537971428410212990000012312476731894374309_);}
	.st4{fill:url(#SVGID_00000036242666472143575750000002644295988262578354_);}
	.st5{fill:url(#SVGID_00000084516314536820250780000004477962964787528067_);}
	.st6{fill:url(#SVGID_00000111896332990586392750000004176711842817387686_);}
	.st7{fill:url(#SVGID_00000155141799004484657050000002832364688480165790_);}
	.st8{fill:url(#SVGID_00000074430633266000326950000017513035239749834921_);}
	.st9{fill:#121535;}
	.st10{fill:url(#SVGID_00000099634403841858041580000016803853413982000799_);}
	.st11{fill:#FFC107;}
	.st12{fill:#FF1646;}
	.st13{fill:#18FFFF;}
	.st14{fill:#CDDC39;}
	.st15{fill:url(#SVGID_00000008837276255270653670000014021299229050811541_);}
	.st16{fill:url(#SVGID_00000096017932583385157660000010901061316949687740_);}
	.st17{fill:url(#SVGID_00000096751890009806051970000014130199114362130843_);}
	.st18{fill:url(#SVGID_00000028305454464917274010000010104907414424890544_);}
	.st19{fill:url(#SVGID_00000065074455802492947630000007271465380302724281_);}
	.st20{fill:url(#SVGID_00000162323716230476106710000016678672504475605414_);}
	.st21{fill:url(#SVGID_00000111906674744796271730000010276106309159114674_);}
	.st22{fill:url(#SVGID_00000091010753066195070550000012649617569481358231_);}
	.st23{fill:url(#SVGID_00000105404258618637878620000013870942105957258396_);}
	.st24{fill:url(#SVGID_00000054228733627869230570000013372739640784133027_);}
	.st25{fill:url(#SVGID_00000005977682046497364150000000756339960623253930_);}
	.st26{fill:url(#SVGID_00000101092023980671578420000012318235386634048168_);}
	.st27{fill:url(#SVGID_00000081615643383512935070000014722513752838993807_);}
	.st28{fill:url(#SVGID_00000162318684685257088710000010436464411309388169_);}
	.st29{fill:url(#SVGID_00000065774802797576276830000005294716854116818580_);}
	.st30{fill:url(#SVGID_00000161627481959621250310000006502599944304101559_);}
	.st31{fill:url(#SVGID_00000178897209424653454840000009871826602076211111_);}
	.st32{fill:url(#SVGID_00000029753760371113753520000011019699249836682424_);}
	.st33{fill:url(#SVGID_00000101081418430392684090000014990733806831274673_);}
	.st34{fill:url(#SVGID_00000002348640821260039000000014193494523725956234_);}
	.st35{fill:url(#SVGID_00000101094221063398447010000009736914692141993125_);}
	.st36{fill:url(#SVGID_00000141433724025577821660000016505897831977801398_);}
	.st37{fill:url(#SVGID_00000113318065193958943820000011579701540239610812_);}
</style>
<g id="BACKGROUND">
</g>
<g id="OBJECTS">
	<g>
		<g>
			<g>
				<g>
					<path class="st0" d="M310,135.4h32.9V148h-49.1V85H310V135.4z"/>
					<path class="st0" d="M377,135.9c3.2,0,6.8-0.6,10.8-1.8v-33.8h15.8V148h-14l-0.9-4.5c-2.8,1.9-5.7,3.2-8.7,4.1
						c-3,0.9-5.5,1.3-7.5,1.3h-4.1c-4.1,0-7.4-1.2-9.8-3.7c-2.5-2.5-3.7-5.7-3.7-9.8v-35.1h15.8v32.4c0,0.9,0.3,1.7,0.9,2.3
						c0.6,0.6,1.4,0.9,2.3,0.9H377z"/>
					<path class="st0" d="M447.3,100.3h17.6l-14.4,23.9l14.9,23.9h-17.6l-8.1-14.4l-8.1,14.4H414l14.9-23.9l-14.4-23.9H432l7.7,14.4
						L447.3,100.3z"/>
					<path class="st0" d="M495.5,102.1V148h-15.8v-33.8H473v-12.2H495.5z M479.7,84.1h15.8v12.6h-15.8V84.1z"/>
					<path class="st1" d="M510.2,135c16.4,0.9,27.6,1.4,33.4,1.4c1.4,0,2.5-0.4,3.3-1.2s1.2-1.9,1.2-3.3v-8.1h-20.7
						c-6.3,0-10.9-1.4-13.7-4.3c-2.9-2.9-4.3-7.4-4.3-13.7V103c0-6.3,1.4-10.9,4.3-13.7c2.9-2.9,7.4-4.3,13.7-4.3H559v12.6h-28
						c-3.6,0-5.4,1.8-5.4,5.4v1.8c0,3.6,1.8,5.4,5.4,5.4h16.2c5.9,0,10.2,1.4,13,4.1c2.8,2.8,4.1,7.1,4.1,13v4.5
						c0,5.9-1.4,10.2-4.1,13c-2.8,2.8-7.1,4.1-13,4.1c-3.1,0-6.3-0.1-9.7-0.2l-8.3-0.4c-6.1-0.3-12.5-0.7-19-1.3V135z"/>
					<path class="st1" d="M611.6,148c-5.8,0.6-11.5,0.9-17.1,0.9c-4.1,0-7.4-1.2-9.8-3.7c-2.5-2.5-3.7-5.7-3.7-9.8v-23h-5.4v-12.2
						h5.4l1.8-10.8h14v10.8H608v12.2h-11.3v20.7c0,0.9,0.3,1.7,0.9,2.3c0.6,0.6,1.4,0.9,2.3,0.9h11.7V148z"/>
					<path class="st1" d="M671.5,134.5c0,4.5-1.3,8-3.8,10.6c-2.6,2.6-6.1,3.8-10.6,3.8h-20.7c-4.5,0-8-1.3-10.6-3.8
						c-2.6-2.6-3.8-6.1-3.8-10.6v-20.7c0-4.5,1.3-8,3.8-10.6c2.6-2.6,6.1-3.8,10.6-3.8h20.7c4.5,0,8,1.3,10.6,3.8
						c2.6,2.6,3.8,6.1,3.8,10.6V134.5z M655.8,115.1c0-2.4-1.2-3.6-3.6-3.6h-10.8c-2.4,0-3.6,1.2-3.6,3.6v18c0,2.4,1.2,3.6,3.6,3.6
						h10.8c2.4,0,3.6-1.2,3.6-3.6V115.1z"/>
					<path class="st1" d="M713.9,113.3c-3.8,0-7.7,0.9-11.7,2.7v32h-15.8v-47.7h14l0.9,5.9c5.2-4.5,10.6-6.8,16.2-6.8h4.1v14H713.9z
						"/>
					<path class="st1" d="M776.9,147.1c-11.6,1.2-22.1,1.8-31.5,1.8c-4.1,0-7.4-1.2-9.8-3.7c-2.5-2.5-3.7-5.7-3.7-9.8v-21.6
						c0-4.5,1.3-8,3.8-10.6c2.6-2.6,6.1-3.8,10.6-3.8h18c4.5,0,8,1.3,10.6,3.8c2.6,2.6,3.8,6.1,3.8,10.6v16.7h-31.1v3.6
						c0,0.9,0.3,1.7,0.9,2.3c0.6,0.6,1.4,0.9,2.3,0.9c5.9,0,14.6-0.5,26.1-1.4V147.1z M751.2,110.6c-2.4,0-3.6,1.2-3.6,3.6v5h15.3
						v-5c0-2.4-1.2-3.6-3.6-3.6H751.2z"/>
				</g>
			</g>
			<g>
				<g>
					<path class="st0" d="M361.6,184.9c0-4,1.2-7.3,3.5-9.8c2.3-2.5,5.4-3.8,9.3-3.8c3.6,0,6.6,1.2,8.8,3.6c2.2,2.4,3.3,5.6,3.3,9.4
						c0,4-1.2,7.2-3.5,9.7c-0.1,0.2-0.3,0.3-0.4,0.4l6.5,6.3H381l-3.4-3.5c-1.1,0.3-2.4,0.5-3.7,0.5c-3.7,0-6.6-1.2-8.9-3.6
						C362.7,191.8,361.6,188.7,361.6,184.9z M367.3,184.6c0,2.5,0.6,4.5,1.8,6.1c1.2,1.6,2.8,2.4,4.9,2.4c2.1,0,3.8-0.8,5-2.3
						s1.8-3.5,1.8-6.1c0-2.7-0.6-4.8-1.7-6.3s-2.8-2.3-4.9-2.3c-2.1,0-3.8,0.8-5,2.4C367.9,180.1,367.3,182.1,367.3,184.6z"/>
					<path class="st0" d="M414.1,197.4h-5.3v-2.8h-0.1c-1.4,2.2-3.2,3.2-5.6,3.2c-4.2,0-6.4-2.6-6.4-7.7v-11h5.3v10.5
						c0,2.7,1.1,4.1,3.2,4.1c1.1,0,1.9-0.4,2.6-1.1c0.6-0.7,1-1.8,1-3v-10.4h5.3V197.4z"/>
					<path class="st0" d="M426.1,180.2c0.8-0.5,1.9-0.8,3.3-1.1c1.4-0.3,2.6-0.4,3.5-0.4c5.1,0,7.7,2.6,7.7,7.7v11h-5.1v-2.7h-0.1
						c-1.2,2.1-3.1,3.1-5.5,3.1c-1.7,0-3.1-0.5-4.1-1.5c-1-1-1.6-2.3-1.6-4c0-3.5,2.1-5.5,6.2-6.1l5-0.7c0-2.1-1.1-3.2-3.3-3.2
						c-2.2,0-4.2,0.7-6.2,2V180.2z M432.1,189.1c-1.9,0.3-2.9,1.1-2.9,2.6c0,0.7,0.2,1.2,0.7,1.6c0.5,0.4,1.1,0.6,1.9,0.6
						c1.1,0,2-0.4,2.7-1.2c0.7-0.8,1.1-1.7,1.1-2.9v-1.3L432.1,189.1z"/>
					<path class="st0" d="M451.9,197.4v-27h5.3v27H451.9z"/>
					<path class="st0" d="M468.2,173.2c0-0.8,0.3-1.5,0.9-2c0.6-0.5,1.3-0.8,2.2-0.8c0.9,0,1.7,0.3,2.2,0.8c0.6,0.5,0.9,1.2,0.9,2
						c0,0.8-0.3,1.5-0.9,2c-0.6,0.5-1.3,0.8-2.2,0.8c-0.9,0-1.6-0.3-2.2-0.8C468.5,174.7,468.2,174,468.2,173.2z M468.6,197.4v-18.2
						h5.3v18.2H468.6z"/>
					<path class="st0" d="M496.2,197.1c-0.8,0.4-2,0.7-3.6,0.7c-3.9,0-5.8-2-5.8-6.1v-8.6h-3v-4h3v-4l5.3-1.5v5.5h4.2v4H492v7.7
						c0,1.9,0.8,2.9,2.3,2.9c0.6,0,1.2-0.2,1.8-0.5V197.1z"/>
					<path class="st0" d="M523.2,179.1l-7.5,19.9c-1.7,4.6-4.4,6.9-7.8,6.9c-1.4,0-2.4-0.1-3.2-0.4v-4.3c0.7,0.4,1.5,0.6,2.4,0.6
						c1.5,0,2.5-0.7,3.1-2.1l1-2.4l-7.4-18.2h5.9l3.6,11.4c0.2,0.7,0.4,1.5,0.5,2.3h0.1c0.1-0.6,0.3-1.3,0.5-2.3l3.6-11.5H523.2z"/>
					<path class="st0" d="M566.9,194.5c-2.7,2.2-5.7,3.2-9.3,3.2c-2.9,0-5.2-0.7-7-2.1s-2.6-3.3-2.6-5.7c0-3.3,2.1-5.8,6.2-7.4
						c-2.1-1.6-3.1-3.4-3.1-5.3c0-1.8,0.7-3.2,2.1-4.3c1.4-1.1,3.2-1.6,5.6-1.6c2.1,0,3.9,0.5,5.2,1.5c1.3,1,2,2.4,2,4
						c0,2.6-1.5,4.5-4.6,5.8c2.4,1.1,4.4,2.9,6.2,5.5c1.8-2.3,2.7-5.1,2.7-8.4c0-0.9-0.1-1.7-0.3-2.5h4.6c0.2,0.6,0.3,1.4,0.3,2.4
						c0,4.4-1.6,8.3-4.9,11.8c1.3,1.4,2.5,2.1,3.7,2.1s2.2-0.2,3.2-0.7v4.1c-1.2,0.5-2.5,0.7-3.9,0.7
						C570.8,197.8,568.8,196.7,566.9,194.5z M564.6,191.1c-1.9-3-4.3-5.1-7.2-6.3c-2.6,1.2-3.9,2.9-3.9,5c0,1.2,0.4,2.1,1.2,2.8
						c0.8,0.7,1.9,1.1,3.2,1.1C560.4,193.7,562.6,192.9,564.6,191.1z M558.2,180.7c2.1-0.8,3.1-1.9,3.1-3.4c0-0.7-0.2-1.3-0.8-1.7
						s-1.1-0.6-1.8-0.6c-0.8,0-1.5,0.2-2,0.7c-0.5,0.5-0.8,1-0.8,1.7C556,178.7,556.7,179.8,558.2,180.7z"/>
					<path class="st0" d="M621.6,176.3h-7.3v21.1h-5.5v-21.1h-7.3v-4.5h20V176.3z"/>
					<path class="st0" d="M640.2,184c-0.6-0.4-1.4-0.6-2.4-0.6c-1.2,0-2.2,0.5-2.9,1.4c-0.7,0.9-1.1,2.2-1.1,3.8v8.8h-5.3v-18.2h5.3
						v3.4h0.1c0.9-2.5,2.5-3.7,4.8-3.7c0.6,0,1.1,0.1,1.4,0.2V184z"/>
					<path class="st0" d="M666.8,197.4h-5.3v-2.8h-0.1c-1.4,2.2-3.2,3.2-5.6,3.2c-4.2,0-6.4-2.6-6.4-7.7v-11h5.3v10.5
						c0,2.7,1.1,4.1,3.2,4.1c1.1,0,1.9-0.4,2.6-1.1c0.6-0.7,1-1.8,1-3v-10.4h5.3V197.4z"/>
					<path class="st0" d="M677.9,192.5c1.8,1.1,3.6,1.7,5.4,1.7c2.2,0,3.3-0.6,3.3-1.8c0-0.8-0.9-1.5-2.7-2.1
						c-2.3-0.7-3.8-1.5-4.7-2.3c-0.8-0.9-1.3-2-1.3-3.5c0-1.8,0.7-3.2,2.2-4.2c1.5-1,3.4-1.5,5.7-1.5c1.7,0,3.3,0.2,4.8,0.7v4.2
						c-1.4-0.8-3-1.3-4.7-1.3c-0.8,0-1.5,0.2-2,0.5c-0.5,0.3-0.8,0.7-0.8,1.2c0,0.8,0.8,1.5,2.3,2c1.6,0.5,2.9,1,3.7,1.5
						c0.8,0.5,1.5,1,1.9,1.8c0.4,0.7,0.7,1.6,0.7,2.6c0,1.9-0.8,3.3-2.3,4.4c-1.5,1-3.5,1.6-6,1.6c-2,0-3.8-0.3-5.5-0.9V192.5z"/>
					<path class="st0" d="M712.5,197.1c-0.8,0.4-2,0.7-3.6,0.7c-3.9,0-5.8-2-5.8-6.1v-8.6h-3v-4h3v-4l5.3-1.5v5.5h4.2v4h-4.2v7.7
						c0,1.9,0.8,2.9,2.3,2.9c0.6,0,1.2-0.2,1.8-0.5V197.1z"/>
				</g>
			</g>
		</g>
		<g>
			<g>
				<linearGradient id="SVGID_1_" gradientUnits="userSpaceOnUse" x1="46.5085" y1="-58.8016" x2="340.2234" y2="242.4831">
					<stop  offset="0" style="stop-color:#00BCD4"/>
					<stop  offset="0.114" style="stop-color:#1A9DDC"/>
					<stop  offset="0.3048" style="stop-color:#406FE9"/>
					<stop  offset="0.4005" style="stop-color:#4F5DEE"/>
					<stop  offset="0.5268" style="stop-color:#5747F4"/>
					<stop  offset="0.695" style="stop-color:#5F31FA"/>
					<stop  offset="0.8559" style="stop-color:#6324FE"/>
					<stop  offset="1" style="stop-color:#651FFF"/>
				</linearGradient>
				<path class="st2" d="M199,68.3c-5.5,0-10-4.5-10-10V58c0-20.9-17-38-38-38s-38,17-38,38v0.3c0,5.5-4.5,10-10,10
					c-5.5,0-10-4.5-10-10V58c0-32,26-58,58-58s58,26,58,58v0.3C208.9,63.8,204.5,68.3,199,68.3z"/>
			</g>
			<g>
				<g>
					
						<linearGradient id="SVGID_00000176760813052806088570000010804666221654210219_" gradientUnits="userSpaceOnUse" x1="-26.8585" y1="12.7208" x2="266.8573" y2="314.0064">
						<stop  offset="0" style="stop-color:#00BCD4"/>
						<stop  offset="0.114" style="stop-color:#1A9DDC"/>
						<stop  offset="0.3048" style="stop-color:#406FE9"/>
						<stop  offset="0.4005" style="stop-color:#4F5DEE"/>
						<stop  offset="0.5268" style="stop-color:#5747F4"/>
						<stop  offset="0.695" style="stop-color:#5F31FA"/>
						<stop  offset="0.8559" style="stop-color:#6324FE"/>
						<stop  offset="1" style="stop-color:#651FFF"/>
					</linearGradient>
					<circle style="fill:url(#SVGID_00000176760813052806088570000010804666221654210219_);" cx="187.8" cy="232.9" r="17.8"/>
				</g>
				<g>
					
						<linearGradient id="SVGID_00000137108816966135313120000010346871599641116558_" gradientUnits="userSpaceOnUse" x1="-64.6259" y1="49.5393" x2="229.0899" y2="350.825">
						<stop  offset="0" style="stop-color:#00BCD4"/>
						<stop  offset="0.114" style="stop-color:#1A9DDC"/>
						<stop  offset="0.3048" style="stop-color:#406FE9"/>
						<stop  offset="0.4005" style="stop-color:#4F5DEE"/>
						<stop  offset="0.5268" style="stop-color:#5747F4"/>
						<stop  offset="0.695" style="stop-color:#5F31FA"/>
						<stop  offset="0.8559" style="stop-color:#6324FE"/>
						<stop  offset="1" style="stop-color:#651FFF"/>
					</linearGradient>
					<circle style="fill:url(#SVGID_00000137108816966135313120000010346871599641116558_);" cx="114.2" cy="232.9" r="17.8"/>
				</g>
			</g>
			<g>
				
					<linearGradient id="SVGID_00000042702234086837364400000008533354088269672126_" gradientUnits="userSpaceOnUse" x1="-51.5811" y1="36.8231" x2="242.1337" y2="338.1078">
					<stop  offset="0" style="stop-color:#00BCD4"/>
					<stop  offset="0.114" style="stop-color:#1A9DDC"/>
					<stop  offset="0.3048" style="stop-color:#406FE9"/>
					<stop  offset="0.4005" style="stop-color:#4F5DEE"/>
					<stop  offset="0.5268" style="stop-color:#5747F4"/>
					<stop  offset="0.695" style="stop-color:#5F31FA"/>
					<stop  offset="0.8559" style="stop-color:#6324FE"/>
					<stop  offset="1" style="stop-color:#651FFF"/>
				</linearGradient>
				<path style="fill:url(#SVGID_00000042702234086837364400000008533354088269672126_);" d="M52.5,116.7c0,3.5-1.4,6.7-3.7,9
					c-2.3,2.3-5.5,3.7-9,3.7H12.7c-7,0-12.7-5.7-12.7-12.7c0-3.5,1.4-6.7,3.7-9c2.3-2.3,5.5-3.7,8.9-3.7h27.2
					C46.9,104,52.5,109.7,52.5,116.7z"/>
			</g>
			<g>
				
					<linearGradient id="SVGID_00000016770959598464110460000001573900234051459493_" gradientUnits="userSpaceOnUse" x1="-51.5811" y1="36.8231" x2="242.1337" y2="338.1078">
					<stop  offset="0" style="stop-color:#00BCD4"/>
					<stop  offset="0.114" style="stop-color:#1A9DDC"/>
					<stop  offset="0.3048" style="stop-color:#406FE9"/>
					<stop  offset="0.4005" style="stop-color:#4F5DEE"/>
					<stop  offset="0.5268" style="stop-color:#5747F4"/>
					<stop  offset="0.695" style="stop-color:#5F31FA"/>
					<stop  offset="0.8559" style="stop-color:#6324FE"/>
					<stop  offset="1" style="stop-color:#651FFF"/>
				</linearGradient>
				<path style="fill:url(#SVGID_00000016770959598464110460000001573900234051459493_);" d="M52.5,116.7c0,3.5-1.4,6.7-3.7,9
					c-2.3,2.3-5.5,3.7-9,3.7H12.7c-7,0-12.7-5.7-12.7-12.7c0-3.5,1.4-6.7,3.7-9c2.3-2.3,5.5-3.7,8.9-3.7h27.2
					C46.9,104,52.5,109.7,52.5,116.7z"/>
			</g>
			<g>
				
					<linearGradient id="SVGID_00000120542761016798045780000001703515509374533001_" gradientUnits="userSpaceOnUse" x1="-0.2991" y1="-13.1699" x2="293.416" y2="288.1151">
					<stop  offset="0" style="stop-color:#00BCD4"/>
					<stop  offset="0.114" style="stop-color:#1A9DDC"/>
					<stop  offset="0.3048" style="stop-color:#406FE9"/>
					<stop  offset="0.4005" style="stop-color:#4F5DEE"/>
					<stop  offset="0.5268" style="stop-color:#5747F4"/>
					<stop  offset="0.695" style="stop-color:#5F31FA"/>
					<stop  offset="0.8559" style="stop-color:#6324FE"/>
					<stop  offset="1" style="stop-color:#651FFF"/>
				</linearGradient>
				<path style="fill:url(#SVGID_00000120542761016798045780000001703515509374533001_);" d="M229.4,78.6H73.3c-3.5,0-6.7,1.4-9,3.7
					c-2.3,2.3-3.7,5.5-3.7,9c0,6.9,5.6,12.6,12.5,12.7h41.7c7,0,12.7,5.7,12.7,12.7c0,3.5-1.4,6.7-3.7,9c-2.3,2.3-5.5,3.7-9,3.7
					H62.1c-3.5,0-6.7,1.4-9,3.7s-3.7,5.5-3.7,9c0,7,5.7,12.7,12.7,12.7h80.4c6.8,0,12.3,5.5,12.3,12.3v0.8c0,6.8-5.5,12.3-12.3,12.3
					H62.1c-3.5,0-6.7,1.4-9,3.7c-2.3,2.3-3.7,5.5-3.7,8.9c0,7,5.7,12.7,12.7,12.7h27.2c0.6,0,1.2,0,1.7-0.1c0,0,0,0,0,0
					c1,0.1,2.1,0.1,3.1,0.1h124.3c16.2,0,29.8-9.4,31.6-21.9l11-77.5C263.1,91.4,248.4,78.6,229.4,78.6z M242.6,109.4l-48.5,48.5
					c-1.5,1.5-3.5,2.3-5.6,2.3c-2.1,0-4.1-0.8-5.6-2.3L160.1,135c-1.5-1.5-2.2-3.4-2.3-5.3c-0.1-2.1,0.7-4.3,2.3-5.9
					c3.1-3.1,8.1-3.1,11.2,0l17.2,17.2l42.9-42.9c3.1-3.1,8.1-3.1,11.2,0C245.7,101.3,245.7,106.3,242.6,109.4z"/>
			</g>
			<g>
				
					<linearGradient id="SVGID_00000037659217247964572470000013499327849584199590_" gradientUnits="userSpaceOnUse" x1="-74.4453" y1="59.1141" x2="219.2686" y2="360.3977">
					<stop  offset="0" style="stop-color:#00BCD4"/>
					<stop  offset="0.114" style="stop-color:#1A9DDC"/>
					<stop  offset="0.3048" style="stop-color:#406FE9"/>
					<stop  offset="0.4005" style="stop-color:#4F5DEE"/>
					<stop  offset="0.5268" style="stop-color:#5747F4"/>
					<stop  offset="0.695" style="stop-color:#5F31FA"/>
					<stop  offset="0.8559" style="stop-color:#6324FE"/>
					<stop  offset="1" style="stop-color:#651FFF"/>
				</linearGradient>
				<path style="fill:url(#SVGID_00000037659217247964572470000013499327849584199590_);" d="M43.8,167.4c0,3.9-1.7,7.4-4.5,9.7
					c-2.2,1.9-5.1,3-8.2,3c-7,0-12.7-5.7-12.7-12.7s5.7-12.7,12.7-12.7c3.1,0,6,1.1,8.2,3C42.1,160,43.8,163.5,43.8,167.4z"/>
			</g>
		</g>
	</g>
</g>
</svg>
